# xmcd
#
# Track frame offsets: 
#        150
#        31395
#        55067
#        81528
#        93113
#        110207
#        134731
#        165806
#        192204
#        213230
#        236401
#        258424
#
# Disc length: 3690 seconds
#
# Revision: 1
# Processed by: cddbd v1.5.2PL0 Copyright (c) Steve Scherf et al.
# Submitted via: ExactAudioCopy v0.99pb5
#
DISCID=a00e680c
DTITLE=Paul Lamb and The King Snakes - The Games People Play
DYEAR=2012
DGENRE=Blues
TTITLE0=I Got A Woman - Fulsom Prison
TTITLE1=Let Me In
TTITLE2=Come To The Conclusion
TTITLE3=Summertime
TTITLE4=Depressing Recession
TTITLE5=Easy
TTITLE6=Black Jack Game
TTITLE7=Games People Play
TTITLE8=Ida Mae
TTITLE9=Mind Games
TTITLE10=Ya Ya Blues
TTITLE11=Midnight Special
EXTD=
EXTT0=
EXTT1=
EXTT2=
EXTT3=
EXTT4=
EXTT5=
EXTT6=
EXTT7=
EXTT8=
EXTT9=
EXTT10=
EXTT11=
PLAYORDER=
